<svg width="26" height="30" viewBox="0 0 26 30" fill="none" xmlns="http://www.w3.org/2000/svg">
<path d="M25.1144 6.20367L23.2469 0.600996C23.1273 0.242109 22.7914 0 22.4131 0H3.58503C3.20675 0 2.87089 0.242109 2.75125 0.600996L0.868336 6.24943C0.779039 6.51744 0.823922 6.81211 0.989156 7.04133C1.15433 7.27049 1.4197 7.40631 1.70218 7.40631H3.64744V22.5938H2.64349C2.1581 22.5938 1.76459 22.9873 1.76459 23.4727C1.76459 23.958 2.1581 24.3516 2.64349 24.3516H3.64738V29.1211C3.64738 29.6065 4.04089 30 4.52628 30H21.4716C21.957 30 22.3505 29.6065 22.3505 29.1211V24.3516H23.3545C23.8399 24.3516 24.2334 23.9581 24.2334 23.4727C24.2334 22.9873 23.8399 22.5938 23.3545 22.5938H22.3505V7.40631H24.2959C24.2963 7.40631 24.2968 7.40631 24.2971 7.40631C24.7825 7.40631 25.176 7.01279 25.176 6.5274C25.176 6.41309 25.1541 6.30387 25.1144 6.20367ZM20.5928 22.5938H20.5927H5.40519V7.40631H12.12V11.2969H10.1748C9.68939 11.2969 9.29587 11.6904 9.29587 12.1758V17.8241C9.29587 18.3096 9.68939 18.703 10.1748 18.703H15.8233C16.3087 18.703 16.7022 18.3096 16.7022 17.8241V12.1758C16.7022 11.6904 16.3087 11.2969 15.8233 11.2969H13.8779V7.40631H20.5928V22.5938Z" fill="#319F1C"/>
</svg>
