<svg width="26" height="26" viewBox="0 0 26 26" fill="none" xmlns="http://www.w3.org/2000/svg">
<path d="M10.7816 16.724V17.7863C10.7816 18.5355 10.172 19.145 9.42277 19.145C8.67354 19.145 8.06396 18.5354 8.06396 17.7863V0H1.20898V17.7862C1.20898 22.3153 4.89363 26 9.42277 26C13.9519 26 17.6365 22.3154 17.6365 17.7862V16.724H10.7816Z" fill="#319F1C"/>
<path d="M18.8279 11.9911H9.58984V15.2006H18.8279V11.9911Z" fill="#319F1C"/>
<path d="M24.7906 0H21.5811V9.23809H24.7906V0Z" fill="#319F1C"/>
<path d="M10.7812 9.40543V10.4677H17.6362V9.40543C17.6362 8.65615 18.2458 8.04663 18.995 8.04663H20.0572V1.19165H18.995C14.4659 1.19165 10.7812 4.87635 10.7812 9.40543Z" fill="#319F1C"/>
</svg>
