<svg width="28" height="28" viewBox="0 0 28 28" fill="none" xmlns="http://www.w3.org/2000/svg">
<path d="M10.7195 1.20187C10.472 0.827695 10.3086 0.580508 10.3086 0H8.66797C8.66797 1.07379 9.04662 1.64653 9.35085 2.10673C9.59831 2.4809 9.76172 2.72809 9.76172 3.30859C9.76172 3.8891 9.59826 4.13629 9.35085 4.51046C9.04662 4.97066 8.66797 5.5434 8.66797 6.61719H10.3086C10.3086 6.03668 10.472 5.78949 10.7195 5.41532C11.0237 4.95513 11.4023 4.38238 11.4023 3.30859C11.4023 2.2348 11.0237 1.66206 10.7195 1.20187Z" fill="white"/>
<path d="M7.43821 1.20187C7.19075 0.827695 7.02734 0.580508 7.02734 0H5.38672C5.38672 1.07379 5.76537 1.64653 6.0696 2.10673C6.31706 2.4809 6.48047 2.72809 6.48047 3.30859C6.48047 3.8891 6.31701 4.13629 6.0696 4.51046C5.76537 4.97066 5.38672 5.5434 5.38672 6.61719H7.02734C7.02734 6.03668 7.19075 5.78949 7.43821 5.41532C7.74244 4.95513 8.12109 4.38238 8.12109 3.30859C8.12109 2.2348 7.74244 1.66206 7.43821 1.20187Z" fill="white"/>
<path d="M14.0007 1.20187C13.7533 0.827695 13.5898 0.580508 13.5898 0H11.9492C11.9492 1.07379 12.3279 1.64653 12.6321 2.10673C12.8796 2.4809 13.043 2.72809 13.043 3.30859C13.043 3.8891 12.8795 4.13629 12.6321 4.51046C12.3279 4.97066 11.9492 5.5434 11.9492 6.61719H13.5898C13.5898 6.03668 13.7533 5.78949 14.0007 5.41532C14.3049 4.95513 14.6836 4.38238 14.6836 3.30859C14.6836 2.2348 14.3049 1.66206 14.0007 1.20187Z" fill="white"/>
<path d="M17.282 1.20187C17.0345 0.827695 16.8711 0.580508 16.8711 0H15.2305C15.2305 1.07379 15.6091 1.64653 15.9134 2.10673C16.1608 2.4809 16.3242 2.72809 16.3242 3.30859C16.3242 3.8891 16.1608 4.13629 15.9134 4.51046C15.6091 4.97066 15.2305 5.5434 15.2305 6.61719H16.8711C16.8711 6.03668 17.0345 5.78949 17.282 5.41532C17.5862 4.95513 17.9648 4.38238 17.9648 3.30859C17.9648 2.2348 17.5862 1.66206 17.282 1.20187Z" fill="white"/>
<path d="M20.5632 1.20187C20.3158 0.827695 20.1523 0.580508 20.1523 0H18.5117C18.5117 1.07379 18.8904 1.64653 19.1946 2.10673C19.4421 2.4809 19.6055 2.72809 19.6055 3.30859C19.6055 3.8891 19.442 4.13629 19.1946 4.51046C18.8904 4.97066 18.5117 5.5434 18.5117 6.61719H20.1523C20.1523 6.03668 20.3158 5.78949 20.5632 5.41532C20.8674 4.95513 21.2461 4.38238 21.2461 3.30859C21.2461 2.2348 20.8674 1.66206 20.5632 1.20187Z" fill="white"/>
<path d="M16.5156 8.25781C15.3075 8.25781 14.3281 9.23721 14.3281 10.4453V25.8125C14.3281 27.0206 15.3075 28 16.5156 28C17.7237 28 18.7031 27.0206 18.7031 25.8125V10.4453C18.7031 9.23721 17.7237 8.25781 16.5156 8.25781Z" fill="white"/>
<path d="M4.10156 8.25781C2.89346 8.25781 1.91406 9.23721 1.91406 10.4453V11.2656H0V12.9062H1.91406V25.8125C1.91406 27.0206 2.89346 28 4.10156 28C5.30966 28 6.28906 27.0206 6.28906 25.8125V10.4453C6.28906 9.23721 5.30966 8.25781 4.10156 8.25781Z" fill="white"/>
<path d="M10.5 8.25781C9.2919 8.25781 8.3125 9.23721 8.3125 10.4453V25.8125C8.3125 27.0206 9.2919 28 10.5 28C11.7081 28 12.6875 27.0206 12.6875 25.8125V10.4453C12.6875 9.23721 11.7081 8.25781 10.5 8.25781Z" fill="white"/>
<path d="M26.3594 9.29688V11.2656H24.7188V10.4453C24.7188 9.23721 23.7394 8.25781 22.5312 8.25781C21.3231 8.25781 20.3438 9.23721 20.3438 10.4453V25.8125C20.3438 27.0206 21.3231 28 22.5312 28C23.7394 28 24.7188 27.0206 24.7188 25.8125V12.9062H28V9.29688H26.3594Z" fill="white"/>
</svg>
