<svg width="22" height="30" viewBox="0 0 22 30" fill="none" xmlns="http://www.w3.org/2000/svg">
<path d="M4.18635 18.597C4.95507 19.2482 5.4648 20.1304 5.64896 21.0935H10.1214V14.8296C8.60678 14.4383 7.4846 13.0603 7.4846 11.425H9.24248C9.24248 12.3943 10.0311 13.1829 11.0004 13.1829C11.9697 13.1829 12.7582 12.3943 12.7582 11.425H14.5161C14.5161 13.0602 13.394 14.4383 11.8793 14.8296V21.0934H16.3528C16.5389 20.1306 17.0535 19.244 17.8295 18.5841C20.1924 16.5749 21.5477 13.6451 21.5477 10.5461C21.5477 1.09151 10.0171 -3.55169 3.45062 3.19423C-0.834864 7.59702 -0.468522 14.6539 4.18635 18.597Z" fill="#319F1C"/>
<path d="M11.0001 30C12.9387 30 14.5159 28.4228 14.5159 26.4842H7.48438C7.48438 28.4228 9.06155 30 11.0001 30Z" fill="#319F1C"/>
<path d="M5.72656 22.8513H16.2738V24.7263H5.72656V22.8513Z" fill="#319F1C"/>
</svg>
