<svg width="29" height="31" viewBox="0 0 29 31" fill="none" xmlns="http://www.w3.org/2000/svg">
<path d="M20.5995 13.8217C20.8469 13.7643 21.023 13.5453 21.0259 13.2914V10.9159C21.0259 10.7716 20.9686 10.6333 20.8666 10.5314L13.7964 3.46118C13.584 3.24886 13.2398 3.24886 13.0274 3.46118L5.9572 10.5314C5.8552 10.6333 5.79788 10.7716 5.79785 10.9159V18.4913C5.79785 18.7916 6.04135 19.0351 6.34171 19.0351H7.42943C7.7298 19.0351 7.97329 18.7916 7.97329 18.4913V13.0527C7.97329 12.452 8.46028 11.965 9.06101 11.965H12.3242C12.9249 11.965 13.4119 12.452 13.4119 13.0527V18.4913C13.4119 18.7916 13.6554 19.0351 13.9557 19.0351H14.901C15.1389 19.0336 15.3482 18.8776 15.4176 18.6501C16.2061 16.2607 18.1605 14.4396 20.5995 13.8217Z" fill="#319F1C"/>
<path d="M8.51772 26.3772C8.51864 25.8024 8.77873 25.2587 9.22566 24.8973C9.67259 24.5358 10.2587 24.3952 10.821 24.5145C11.7112 24.7196 12.3376 25.5182 12.3247 26.4316V27.7369C12.3247 28.0372 12.5682 28.2807 12.8686 28.2807H13.9563C14.2567 28.2807 14.5002 28.0372 14.5002 27.7369V26.5252C14.53 24.3772 12.9266 22.5565 10.7921 22.3146C9.66186 22.2127 8.54016 22.5858 7.69602 23.3443C6.85188 24.1028 6.36143 25.1784 6.34228 26.3131C6.34418 27.3138 5.59581 28.1571 4.60193 28.2742C4.07061 28.3199 3.54447 28.1407 3.15159 27.78C2.75872 27.4194 2.53513 26.9105 2.53527 26.3772V19.8509C2.53527 18.7996 3.3875 17.9474 4.43877 17.9474H4.7107V15.772H4.43877C2.18604 15.772 0.35983 17.5982 0.35983 19.8509V26.2353C0.329278 28.3198 1.84126 30.1074 3.90199 30.423C5.0672 30.5759 6.2418 30.2195 7.12556 29.4448C8.00932 28.6702 8.5166 27.5524 8.51772 26.3772Z" fill="#319F1C"/>
<path d="M11.7808 19.0351C12.0812 19.0351 12.3247 18.7916 12.3247 18.4912V13.0526H9.06152V18.4912C9.06152 18.7916 9.30502 19.0351 9.60538 19.0351H11.7808Z" fill="#319F1C"/>
<path d="M6.34171 1.63159C6.04135 1.63159 5.79785 1.87509 5.79785 2.17545V6.07601L7.42943 4.44443V2.17545C7.42943 1.87509 7.18594 1.63159 6.88557 1.63159H6.34171Z" fill="#319F1C"/>
<path d="M12.6429 0.769031L2.91923 10.4927C2.70672 10.7051 2.7066 11.0495 2.91895 11.262C3.13131 11.4745 3.47574 11.4746 3.68824 11.2623L12.6429 2.30761C13.0676 1.88298 13.7562 1.88298 14.1809 2.30761L23.1356 11.2623C23.349 11.4684 23.6882 11.4654 23.898 11.2556C24.1078 11.0458 24.1107 10.7066 23.9046 10.4932L14.1809 0.769031C13.7562 0.344405 13.0676 0.344405 12.6429 0.769031Z" fill="#319F1C"/>
<path d="M22.3862 14.6842C18.932 14.6842 16.1318 17.4844 16.1318 20.9386C16.1318 24.3928 18.932 27.193 22.3862 27.193C25.8404 27.193 28.6406 24.3928 28.6406 20.9386C28.6367 17.486 25.8388 14.6881 22.3862 14.6842ZM22.3862 25.5614C20.735 25.5596 19.3968 24.2214 19.395 22.5702C19.395 21.4504 20.7291 18.2133 21.4269 16.8944C21.616 16.5404 21.9848 16.3193 22.3862 16.3193C22.7876 16.3193 23.1564 16.5404 23.3456 16.8944C24.0434 18.2133 25.3774 21.4504 25.3774 22.5702C25.3757 24.2214 24.0375 25.5596 22.3862 25.5614Z" fill="#319F1C"/>
<path d="M11.6477 31H15.1763C15.3716 30.9998 15.5518 30.8948 15.6484 30.7251C15.7449 30.5553 15.7431 30.3468 15.6434 30.1788L15.3209 29.6349C15.223 29.4698 15.0452 29.3685 14.8532 29.3684H11.9708C11.7787 29.3685 11.601 29.4698 11.503 29.6349L11.1805 30.1788C11.0809 30.3468 11.0791 30.5553 11.1756 30.7251C11.2722 30.8948 11.4524 30.9998 11.6477 31Z" fill="#319F1C"/>
<path d="M20.4824 22.5702C20.4824 23.6214 21.3347 24.4737 22.3859 24.4737C23.4372 24.4737 24.2894 23.6214 24.2894 22.5702C24.2894 21.7636 23.1006 18.7583 22.3859 17.4035C21.6713 18.7583 20.4824 21.7636 20.4824 22.5702Z" fill="#319F1C"/>
</svg>
