<svg width="30" height="30" viewBox="0 0 30 30" fill="none" xmlns="http://www.w3.org/2000/svg">
<g clip-path="url(#clip0)">
<path d="M30.0004 13.1889H26.2988V23.8481H30.0004V13.1889Z" fill="#319F1C"/>
<path d="M3.70152 13.1889H0V23.8481H3.70152V13.1889Z" fill="#319F1C"/>
<path d="M19.0317 12.1386V9.20801H10.969V12.1386C10.0738 12.704 9.29513 13.4572 8.69736 14.3618H5.45996V22.6754H8.69742C10.0885 24.7807 12.4579 26.0685 15.0003 26.0685C17.5427 26.0685 19.9121 24.7806 21.3032 22.6754H24.5407V14.3617H21.3033C20.7056 13.4571 19.9268 12.704 19.0317 12.1386Z" fill="#319F1C"/>
<path d="M8.32812 3.93155V5.68941H12.3609V7.45008H17.6374V5.68941H21.6701V3.93155H8.32812Z" fill="#319F1C"/>
</g>
<defs>
<clipPath id="clip0">
<rect width="30" height="30" fill="white"/>
</clipPath>
</defs>
</svg>
