<svg width="30" height="30" viewBox="0 0 30 30" fill="none" xmlns="http://www.w3.org/2000/svg">
<path d="M15 0.000976562L0 12.052L2.21701 14.8115L15 4.54176L27.783 14.8115L30 12.052L15 0.000976562Z" fill="#319F1C"/>
<path d="M27.5453 26.4814H2.45471V29.9999H27.5453V26.4814Z" fill="#319F1C"/>
<path d="M15 16.819C13.5138 16.819 12.3047 18.0281 12.3047 19.5142V24.7235H17.6953V19.5142C17.6953 18.0281 16.4861 16.819 15 16.819Z" fill="#319F1C"/>
<path d="M15 6.79565L10.3254 10.5512H19.6746L15 6.79565Z" fill="#319F1C"/>
<path d="M21.8626 12.309H8.13745L5.09351 14.7544V17.6374H10.9633C11.6728 16.1174 13.2149 15.0612 15.0001 15.0612C16.7851 15.0612 18.3273 16.1175 19.0369 17.6374H24.9066V14.7545L21.8626 12.309Z" fill="#319F1C"/>
<path d="M5.09351 19.3951V24.7235H10.5469V19.5143C10.5469 19.4743 10.5489 19.4348 10.55 19.3951H5.09351Z" fill="#319F1C"/>
<path d="M19.45 19.3951C19.4511 19.4349 19.4531 19.4743 19.4531 19.5143V24.7235H24.9065V19.3951H19.45Z" fill="#319F1C"/>
</svg>
