<svg width="35" height="29" viewBox="0 0 35 29" fill="none" xmlns="http://www.w3.org/2000/svg">
<path d="M13.173 10.8436H22.2525L17.7257 7.13611L13.173 10.8436Z" fill="white"/>
<path d="M1.75249 13.7154L3.11483 15.3747C3.35791 15.6708 3.79473 15.7146 4.09175 15.4727L17.7296 4.36674L30.9481 15.1928C31.2507 15.4406 31.698 15.3904 31.9381 15.0817L33.2749 13.3624C33.5067 13.0643 33.4584 12.6359 33.1662 12.3968L18.2198 0.17159C17.9644 -0.0373166 17.5974 -0.0380687 17.3411 0.169812L1.85196 12.7337C1.55227 12.9767 1.5077 13.4172 1.75249 13.7154Z" fill="white"/>
<path d="M13.0198 16.9915H7.48594C6.98069 16.9915 6.56958 17.4082 6.56958 17.9204C6.56958 18.4326 6.98069 18.8494 7.48594 18.8494H13.0198V16.9915Z" fill="white"/>
<path d="M24.8715 12.9885H10.5391L8.25775 14.8464H27.1399L24.8715 12.9885Z" fill="white"/>
<path d="M6.56958 21.9232C6.56958 22.4354 6.98069 22.8521 7.48594 22.8521H13.0198V20.9943H7.48594C6.98069 20.9943 6.56958 21.411 6.56958 21.9232Z" fill="white"/>
<path d="M28.0646 16.9915H21.9131V18.8494H28.0646C28.5698 18.8494 28.981 18.4327 28.981 17.9205C28.981 17.4082 28.5699 16.9915 28.0646 16.9915Z" fill="white"/>
<path d="M10.4159 1.88703C10.4159 1.455 10.0656 1.10473 9.63355 1.10473L7.17781 1.08374C6.74571 1.08374 6.39551 1.43401 6.39551 1.86604V6.32855L10.4159 3.02522V1.88703H10.4159Z" fill="white"/>
<path d="M33.9275 26.8552H28.0646C28.5698 26.8552 28.981 26.4384 28.981 25.9262C28.981 25.4139 28.5699 24.9972 28.0646 24.9972H21.9131V26.8552H19.7682V16.9915H15.1647V26.8552H13.0197V24.9972H7.48583C6.98059 24.9972 6.56947 25.4139 6.56947 25.9262C6.56947 26.4384 6.98059 26.8552 7.48583 26.8552H1.07249C0.480225 26.8552 0 27.3353 0 27.9276C0 28.5199 0.480225 29.0001 1.07249 29.0001H33.9275C34.5198 29.0001 35 28.5199 35 27.9276C35 27.3353 34.5198 26.8552 33.9275 26.8552Z" fill="white"/>
<path d="M28.981 21.9232C28.981 21.411 28.5699 20.9943 28.0646 20.9943H21.9131V22.8521H28.0646C28.5699 22.8521 28.981 22.4354 28.981 21.9232Z" fill="white"/>
</svg>
