<svg width="30" height="27" viewBox="0 0 30 27" fill="none" xmlns="http://www.w3.org/2000/svg">
<path d="M13.6875 20.8126C13.075 20.3526 12.1875 20.7876 12.1875 21.5626V22.4201C11.42 22.3776 10.67 22.3214 9.95877 22.2426C3.86501 21.6151 1.875 20.1301 1.875 19.6876C1.875 19.5526 2.28626 18.9163 4.28501 18.2513C4.70001 18.1551 5.00626 17.7826 5.00626 17.3376C5.00626 16.7213 4.35876 16.2563 3.77126 16.4463C1.26875 17.2651 0 18.3551 0 19.6876C0 22.7701 6.83002 23.8051 9.76002 24.1076C10.535 24.1926 11.3488 24.2551 12.1875 24.3001V25.3126C12.1875 26.0876 13.075 26.5214 13.6875 26.0626L16.1875 24.1876C16.685 23.8139 16.6875 23.0626 16.1875 22.6876L13.6875 20.8126Z" fill="#319F1C"/>
<path d="M26.2221 16.4463C25.7271 16.2851 25.2008 16.5551 25.0396 17.0476C24.8796 17.5401 25.1483 18.0688 25.6408 18.2301C27.6683 18.8901 28.1246 19.5201 28.1246 19.6888C28.1246 20.2426 25.5533 21.7864 19.1896 22.3176C18.6733 22.3614 18.2908 22.8139 18.3333 23.3301C18.3746 23.8239 18.7971 24.2239 19.3458 24.1864C22.5483 23.9164 29.9996 22.9426 29.9996 19.6876C29.9996 18.3538 28.7283 17.2626 26.2221 16.4463Z" fill="#319F1C"/>
<path d="M15 0L23.75 3.75001L15 7.50002L6.25 3.75001L15 0Z" fill="#319F1C"/>
<path d="M16.25 9.68373V16.9637L23.75 13.75V6.46997L16.25 9.68373Z" fill="#319F1C"/>
<path d="M13.75 9.68373L6.25 6.46997V13.75L13.75 16.9637V9.68373Z" fill="#319F1C"/>
</svg>
