<svg width="20" height="21" viewBox="0 0 20 21" fill="none" xmlns="http://www.w3.org/2000/svg">
<path d="M19.4755 14.7089L16.6786 11.9119C15.6797 10.913 13.9816 11.3126 13.582 12.6112C13.2823 13.5102 12.2834 14.0097 11.3844 13.8099C9.38661 13.3104 6.68957 10.7133 6.19012 8.61555C5.89045 7.7165 6.48979 6.71759 7.3888 6.41796C8.68738 6.0184 9.08694 4.32026 8.08804 3.32136L5.2911 0.524425C4.49198 -0.174808 3.29329 -0.174808 2.59406 0.524425L0.696143 2.42234C-1.20177 4.42015 0.895924 9.71435 5.59077 14.4092C10.2856 19.104 15.5798 21.3017 17.5776 19.3038L19.4755 17.4059C20.1748 16.6068 20.1748 15.4081 19.4755 14.7089Z" fill="#319F1C"/>
</svg>
