<svg width="28" height="36" viewBox="0 0 28 36" fill="none" xmlns="http://www.w3.org/2000/svg">
<path d="M23.9078 0H4.09215C2.18253 0 0.628906 1.55363 0.628906 3.46324V32.5368C0.628906 34.4464 2.18253 36 4.09215 36H23.9078C25.8174 36 27.371 34.4464 27.371 32.5368V3.46324C27.371 1.55363 25.8174 0 23.9078 0ZM5.37563 5.98331C5.37563 5.40084 5.84785 4.92863 6.43032 4.92863H21.5695C22.152 4.92863 22.6242 5.40084 22.6242 5.98331V8.06583C22.6242 8.6483 22.152 9.12052 21.5695 9.12052H6.43032C5.84785 9.12052 5.37563 8.6483 5.37563 8.06583V5.98331ZM8.92648 29.666C8.92648 30.2484 8.45426 30.7207 7.8718 30.7207H6.43039C5.84792 30.7207 5.3757 30.2484 5.3757 29.666V28.6667C5.3757 28.0842 5.84792 27.612 6.43039 27.612H7.8718C8.45426 27.612 8.92648 28.0842 8.92648 28.6667V29.666ZM8.92648 23.4243C8.92648 24.0068 8.45426 24.479 7.8718 24.479H6.43039C5.84792 24.479 5.3757 24.0068 5.3757 23.4243V22.425C5.3757 21.8426 5.84792 21.3704 6.43039 21.3704H7.8718C8.45426 21.3704 8.92648 21.8426 8.92648 22.425V23.4243ZM15.8618 29.666C15.8618 30.2484 15.3895 30.7207 14.8071 30.7207H13.3657C12.7831 30.7207 12.311 30.2484 12.311 29.666V28.6667C12.311 28.0842 12.7831 27.612 13.3657 27.612H14.8071C15.3895 27.612 15.8618 28.0842 15.8618 28.6667V29.666ZM15.8618 23.4243C15.8618 24.0068 15.3895 24.479 14.8071 24.479H13.3657C12.7831 24.479 12.311 24.0068 12.311 23.4243V22.425C12.311 21.8426 12.7831 21.3704 13.3657 21.3704H14.8071C15.3895 21.3704 15.8618 21.8426 15.8618 22.425V23.4243ZM15.8618 17.1826C15.8618 17.7652 15.3895 18.2373 14.8071 18.2373H6.43032C5.84785 18.2373 5.37563 17.7651 5.37563 17.1826V16.1833C5.37563 15.6009 5.84785 15.1286 6.43032 15.1286H14.8071C15.3895 15.1286 15.8618 15.6009 15.8618 16.1833V17.1826ZM22.797 29.666C22.797 30.2484 22.3248 30.7207 21.7423 30.7207H20.3009C19.7185 30.7207 19.2463 30.2484 19.2463 29.666V28.6667C19.2463 28.0842 19.7185 27.612 20.3009 27.612H21.7423C22.3248 27.612 22.797 28.0842 22.797 28.6667V29.666ZM22.797 23.4243C22.797 24.0068 22.3248 24.479 21.7423 24.479H20.3009C19.7185 24.479 19.2463 24.0068 19.2463 23.4243V22.425C19.2463 21.8426 19.7185 21.3704 20.3009 21.3704H21.7423C22.3248 21.3704 22.797 21.8426 22.797 22.425V23.4243ZM22.797 17.1826C22.797 17.7652 22.3248 18.2373 21.7423 18.2373H20.3009C19.7185 18.2373 19.2463 17.7651 19.2463 17.1826V16.1833C19.2463 15.6009 19.7185 15.1286 20.3009 15.1286H21.7423C22.3248 15.1286 22.797 15.6009 22.797 16.1833V17.1826Z" fill="#319F1C"/>
</svg>
