<svg width="36" height="36" viewBox="0 0 36 36" fill="none" xmlns="http://www.w3.org/2000/svg">
<g clip-path="url(#clip0)">
<path d="M35.4721 21.8694L29.6686 6.43607C29.6669 6.43304 29.6669 6.43002 29.6656 6.427L29.6639 6.42535C28.899 4.38986 26.9234 3.02344 24.75 3.02344C22.5766 3.02344 20.601 4.38986 19.8344 6.427C19.6125 7.01807 19.4999 7.64044 19.4999 8.27353V15.0235H16.5001V8.27353C16.5001 5.37836 14.1449 3.02344 11.25 3.02344C9.07663 3.02344 7.10101 4.38986 6.33444 6.427C6.33307 6.43002 6.33307 6.43304 6.33142 6.43607L0.527893 21.865C0.527893 21.8664 0.52652 21.8664 0.52652 21.8664C0.17688 22.798 0 23.7744 0 24.7733C0 29.3231 3.70212 33.0235 8.24991 33.0235C12.798 33.0235 16.5001 29.3231 16.5001 24.7733V24.0235H19.4999V24.7733C19.4999 29.3231 23.202 33.0235 27.7501 33.0235C32.2979 33.0235 36 29.3231 36 24.7733C36 23.7744 35.8231 22.798 35.4721 21.8694ZM8.24991 30.0234C5.35501 30.0234 3.00009 27.6685 3.00009 24.7733C3.00009 24.1375 3.11243 23.5149 3.33463 22.9254C4.09955 20.8913 6.07489 19.5235 8.24991 19.5235C11.1451 19.5235 13.5 21.8784 13.5 24.7733C13.5 27.6685 11.1451 30.0234 8.24991 30.0234ZM27.7501 30.0234C24.8549 30.0234 22.5 27.6685 22.5 24.7733C22.5 21.8784 24.8549 19.5235 27.7501 19.5235C29.9251 19.5235 31.9005 20.8913 32.6654 22.9254C32.8876 23.5149 32.9999 24.1375 32.9999 24.7733C32.9999 27.6685 30.645 30.0234 27.7501 30.0234Z" fill="#319F1C"/>
</g>
<defs>
<clipPath id="clip0">
<rect width="36" height="36" fill="white"/>
</clipPath>
</defs>
</svg>
