<svg width="36" height="39" viewBox="0 0 36 39" fill="none" xmlns="http://www.w3.org/2000/svg">
<path d="M4.74701 25.0368C4.74138 24.9523 4.73743 24.8672 4.73743 24.7813C4.73743 23.2734 5.62495 21.9692 6.90471 21.3621C6.65223 21.1362 6.41136 20.9023 6.1862 20.6588C6.03492 20.4949 5.82481 20.398 5.60209 20.3894C5.37912 20.3801 5.16228 20.4607 4.99856 20.6119L3.14696 22.3232C2.80607 22.6382 2.78515 23.1699 3.10023 23.5108C3.60139 24.0534 4.15298 24.5623 4.74701 25.0368Z" fill="#319F1C"/>
<path d="M35.9667 37.1561L34.3137 33.2532L34.4666 33.1594C34.8622 32.9165 34.9862 32.3991 34.7433 32.0035L30.7195 25.446C31.5197 24.8589 32.2515 24.2127 32.8996 23.5112C33.2147 23.1703 33.1938 22.6386 32.8528 22.3236L31.0013 20.6123C30.8376 20.461 30.6196 20.3808 30.3977 20.3897C30.175 20.3984 29.9649 20.4954 29.8136 20.6591C29.4215 21.0834 28.9861 21.4813 28.5138 21.8515L23.5367 13.7403C24.1807 12.7258 24.5555 11.5245 24.5555 10.2367C24.5555 7.7467 23.1599 5.57682 21.1099 4.46734C21.6013 3.9945 21.9079 3.33105 21.9079 2.597C21.9079 1.16503 20.743 0 19.311 0H16.6888C15.2569 0 14.0919 1.16503 14.0919 2.597C14.0919 3.33105 14.3986 3.9945 14.8899 4.46734C12.84 5.57682 11.4444 7.7467 11.4444 10.2367C11.4444 11.5245 11.8192 12.7259 12.4633 13.7401L7.98535 21.0379C8.16 21.0131 8.33826 20.9994 8.51963 20.9994C10.2797 20.9994 11.7629 22.2082 12.1827 23.8392L16.6001 16.6404C17.0514 16.7389 17.5194 16.7924 17.9999 16.7924C18.4804 16.7924 18.9485 16.7389 19.3998 16.6404L24.0277 24.1826C22.1797 24.7854 20.1295 25.1107 17.9998 25.1107C15.9827 25.1107 14.0369 24.8185 12.2667 24.2754C12.289 24.4412 12.3016 24.6098 12.3016 24.7816C12.3016 26.189 11.5281 27.4185 10.3845 28.0697C12.7345 28.8761 15.3261 29.3129 17.9998 29.3129C20.9237 29.3129 23.7502 28.792 26.2689 27.8349L30.4451 34.6409C30.5617 34.8308 30.749 34.9668 30.9657 35.0186C31.0304 35.0342 31.096 35.0417 31.1613 35.0417C31.3153 35.0417 31.4677 34.9994 31.6009 34.9176L31.8396 34.771L34.5919 38.0043C34.6742 38.1011 34.7924 38.1522 34.9122 38.1522C34.9878 38.1522 35.0643 38.1319 35.1327 38.0897L35.8 37.6779C35.977 37.5686 36.0475 37.3472 35.9667 37.1561ZM18 14.2708C15.7756 14.2708 13.9658 12.4611 13.9658 10.2366C13.9658 8.45243 15.1306 6.936 16.7393 6.40525V8.80785C16.7393 9.50408 17.3038 10.0685 18 10.0685C18.6962 10.0685 19.2607 9.50408 19.2607 8.80785V6.40525C20.8694 6.93591 22.0342 8.45234 22.0342 10.2366C22.0342 12.4611 20.2244 14.2708 18 14.2708Z" fill="#319F1C"/>
<path d="M4.94032 26L1.25662 32.0033C1.0139 32.3988 1.13778 32.9163 1.53338 33.1591L1.68635 33.253L0.0333458 37.156C-0.0475897 37.3469 0.0230082 37.5685 0.199587 37.6775L0.86699 38.0893C0.935403 38.1315 1.01172 38.1518 1.08752 38.1518C1.2072 38.1518 1.32537 38.101 1.40774 38.0039L4.15996 34.7706L4.39882 34.9172C4.53212 34.999 4.68449 35.0413 4.83838 35.0413C4.90376 35.0413 4.9694 35.0336 5.03403 35.0182C5.25079 34.9664 5.43812 34.8305 5.5547 34.6405L9.33933 28.4726C9.07518 28.5311 8.80119 28.5631 8.51964 28.5631C6.86076 28.5632 5.44888 27.4891 4.94032 26Z" fill="#319F1C"/>
<path d="M8.48974 26.7983C9.60375 26.7983 10.5068 25.8952 10.5068 24.7812C10.5068 23.6672 9.60375 22.7642 8.48974 22.7642C7.37574 22.7642 6.47266 23.6672 6.47266 24.7812C6.47266 25.8952 7.37574 26.7983 8.48974 26.7983Z" fill="#319F1C"/>
</svg>
