<svg width="36" height="44" viewBox="0 0 36 44" fill="none" xmlns="http://www.w3.org/2000/svg">
<path d="M12.7562 34.4348H15.4171L15.1823 33.4956C15.104 33.1826 14.791 32.8695 14.3997 32.8695H13.304C12.0518 32.8695 10.8779 32.2435 10.0953 31.2261L7.66922 27.8608L4.69531 29.113L11.4257 33.9652C11.7388 34.2782 12.2866 34.4348 12.7562 34.4348Z" fill="#319F1C"/>
<path d="M24.2607 10.1738H10.1737C9.15633 10.1738 8.29547 10.7999 7.98242 11.739H26.452C26.1389 10.7999 25.2781 10.1738 24.2607 10.1738Z" fill="#319F1C"/>
<path d="M24.2607 8.6087C25.0433 8.6087 25.8259 8.84348 26.452 9.31304C25.8259 6.02609 23.5563 3.2087 20.3476 2.11304V7.04348H18.7824V0.782609C18.7824 0.313043 18.4694 0 17.9998 0H16.4346C15.965 0 15.652 0.313043 15.652 0.782609V7.04348H14.0868V2.11304C10.8781 3.2087 8.53025 5.94782 7.98242 9.31304C8.60851 8.84348 9.39112 8.6087 10.1737 8.6087H24.2607Z" fill="#319F1C"/>
<path d="M21.0524 32.8696H19.9567C19.5654 32.8696 19.2524 33.1043 19.1741 33.4956L19.0176 34.4348H21.6784C22.148 34.4348 22.6958 34.2783 23.0871 33.9652L28.1741 30.2087V28.2522L26.7654 27.7043L24.2611 31.2261C23.5567 32.2435 22.3828 32.8696 21.0524 32.8696Z" fill="#319F1C"/>
<path d="M32.8697 26.2955C32.8697 25.9825 32.2436 25.5129 31.3045 25.5129C30.3653 25.5129 29.7393 25.9825 29.7393 26.2955V33.4956L32.8697 29.1129V26.2955Z" fill="#319F1C"/>
<path d="M9.39139 18.4697V18.9392C9.39139 20.974 10.487 22.774 12.2088 23.7131L14.5566 24.9653C16.2001 25.8262 18.1566 25.8262 19.8001 24.9653L22.1479 23.7131C23.8696 22.774 24.9653 20.8957 24.9653 18.9392V18.4697L26.374 17.6088C26.4523 17.5305 26.5305 17.4523 26.5305 17.2957V15.1044C26.5305 14.9479 26.374 14.7914 26.1392 14.7914C26.061 14.7914 25.9827 14.7914 25.9827 14.8697L25.0436 15.9653V13.3044H9.39139V15.9653L8.374 14.9479C8.21748 14.7914 7.98269 14.8697 7.90443 14.9479C7.82617 15.0262 7.82617 15.1044 7.82617 15.1044V17.2957C7.82617 17.374 7.90443 17.5305 7.98269 17.6088L9.39139 18.4697Z" fill="#319F1C"/>
<path d="M32.8694 40.6956V37.0173L30.4434 40.6956H32.8694Z" fill="#319F1C"/>
<path d="M34.4347 29.6608V29.739H34.3564L24.2607 43.826H35.9999V27.4695L34.4347 29.6608ZM34.4347 42.2608H27.4694L34.4347 31.8521V42.2608Z" fill="#319F1C"/>
<path d="M28.1739 32.1653L23.9478 35.2175C23.2435 35.687 22.4609 36.0001 21.6783 36.0001H18V43.8262H22.3043L28.1739 35.687V32.1653Z" fill="#319F1C"/>
<path d="M7.04395 42.261H12.5222V43.8262H7.04395V42.261Z" fill="#319F1C"/>
<path d="M7.04395 39.1304H12.5222V40.6956H7.04395V39.1304Z" fill="#319F1C"/>
<path d="M20.0344 31.3044H21.13C21.9126 31.3044 22.617 30.9131 23.0083 30.287L25.2779 27.1566L21.7561 25.8262L20.5822 26.4523C18.4692 27.6262 15.9648 27.6262 13.8518 26.4523L12.6779 25.8262L9.23438 27.2349L11.4257 30.287C11.8952 30.9131 12.5996 31.3044 13.3039 31.3044H14.3996C15.4952 31.3044 16.4344 32.0088 16.6692 33.1044L17.217 35.1392L17.7648 33.1044C17.9996 32.0088 18.9387 31.3044 20.0344 31.3044Z" fill="#319F1C"/>
<path d="M10.487 35.2175L3.13043 29.8958C1.17391 31.2262 0 33.4175 0 35.7653V43.8262H5.47826V37.5653H6.8087L6.26087 35.374L7.74783 34.9827L8.37391 37.4871H14.087V43.7479H16.4348V36.0001H12.7565C11.8957 36.0001 11.113 35.7653 10.487 35.2175Z" fill="#319F1C"/>
</svg>
