<svg width="28" height="24" viewBox="0 0 28 24" fill="none" xmlns="http://www.w3.org/2000/svg">
<path fill-rule="evenodd" clip-rule="evenodd" d="M5.38471 8.64079L4.16732 9.10532L3.76687 9.25749C3.35039 9.39365 2.94193 9.58587 2.52545 9.73804C1.99685 9.92225 0.97168 10.2907 0.97168 10.9714C0.97168 11.492 1.50829 11.5881 1.88472 11.7003L7.17875 13.3261C8.10781 13.6064 7.85953 13.6785 8.34809 13.3902C9.22909 12.8536 10.0861 12.2689 10.9671 11.7403L13.2657 10.2987C13.498 10.1545 13.6902 10.0184 13.9304 9.87419L22.1238 4.71631C22.34 4.58817 22.5803 4.40396 22.8446 4.41998C23.4853 4.45201 22.9968 4.94858 22.7565 5.1408C22.4281 5.4051 22.1158 5.72547 21.8034 5.99778L19.3927 8.2083L19.3767 8.22431L17.5185 9.93026C17.1581 10.2987 16.4613 10.8433 16.0849 11.2277L15.8526 11.452L14.403 12.7655C14.0506 13.1179 13.53 13.5264 13.2176 13.8467L12.9774 14.071L12.2726 14.7197C11.76 15.2403 11.4877 15.1842 11.4957 15.801C11.4957 16.1614 11.3195 17.8993 11.2874 18.3158C11.2154 19.1808 11.1913 19.9977 11.1032 20.8627C11.0712 21.135 11.0392 21.3913 11.0392 21.7117C11.76 21.6877 12.3527 21.071 12.8332 20.5984C12.9854 20.4382 13.1375 20.27 13.3057 20.1259L13.4339 20.0138L14.427 19.0446L14.443 19.0286C14.6913 18.8044 15.0357 18.4039 15.268 18.2437L16.157 18.9005C16.6776 19.325 17.7588 20.0778 18.3435 20.5183L21.3709 22.7689C21.6032 22.9291 22.1398 23.1453 22.5082 23.1453C22.7645 23.1453 22.9567 23.0252 23.1089 22.905C23.2611 22.7769 23.3652 22.5927 23.4533 22.4085C23.6856 21.944 24.2542 18.9806 24.3744 18.3639C24.3984 18.2437 24.4384 18.1236 24.4544 18.0275L26.705 7.43942C26.8732 6.76665 26.9613 6.06185 27.1455 5.36505L27.2897 4.70831C27.4098 4.03554 27.8263 2.47376 27.8263 1.95317C27.8263 1.25637 27.4739 0.519531 26.705 0.519531C26.1444 0.519531 24.7668 1.17628 24.1581 1.40054L23.7496 1.5447L22.5082 2.02525L22.1078 2.17742L14.7634 5.01265L14.3629 5.17284L12.7291 5.80556C12.4568 5.92569 12.1764 5.99778 11.9121 6.1099L7.82749 7.6877L7.42704 7.84788C6.76228 8.13621 6.07349 8.37649 5.38471 8.64079Z" fill="#319F1C"/>
</svg>
