<svg width="25" height="27" viewBox="0 0 25 27" fill="none" xmlns="http://www.w3.org/2000/svg">
<path fill-rule="evenodd" clip-rule="evenodd" d="M4.54562 20.2044C5.0213 20.459 6.40144 20.9949 6.46843 21.2428L6.48853 26.214C6.99101 26.1604 7.69448 25.1018 7.99597 24.7669C11.7478 20.5393 10.1131 22.2009 15.1312 21.6716C16.4443 21.5309 17.6502 21.3768 18.9366 20.9949C20.3837 20.5661 21.8376 19.8292 22.6147 18.7505C24.8993 15.5615 24.7854 10.1079 24.0351 6.28237C23.5795 3.94417 22.2864 2.32285 20.0889 1.32459C17.5832 0.17894 12.7528 -0.243142 9.67759 0.18564C6.74982 0.594322 3.44017 1.60598 2.01313 4.38635C0.746884 6.87195 0.579391 11.6555 1.10867 14.7776C1.49725 17.0622 2.54241 19.1123 4.54562 20.2044ZM8.98082 14.188C7.40639 12.4997 5.85876 10.1548 5.0146 7.8769C4.39152 6.19528 5.24239 4.64764 7.07141 4.20546C7.73468 4.04467 8.12326 4.37966 8.49174 4.75484C8.82003 5.08982 9.15502 5.47841 9.4364 5.87369C9.71779 6.26227 10.026 6.71115 10.2404 7.12653C11.1515 8.88186 9.78479 8.82156 9.26891 9.65902C8.55874 10.8181 10.4548 12.9486 11.185 13.565C11.7009 13.9937 13.1815 15.0456 13.9922 14.7843C14.4478 14.6302 14.6756 14.0607 15.0374 13.7592C16.0356 12.9218 17.1411 13.9334 17.8713 14.4292C18.2934 14.724 18.615 14.9786 19.0237 15.3002C19.4324 15.6285 19.8209 16.0036 19.7741 16.5865C19.687 17.6384 17.945 19.5813 16.3237 19.0989C15.4996 18.851 14.287 18.2078 13.5634 17.7724C11.7746 16.7138 10.3007 15.5883 8.98082 14.188ZM12.9805 6.53696C12.592 6.40297 12.6255 5.87369 12.9805 5.77319C13.4562 5.6325 14.7024 6.04788 15.0575 6.21537C16.1964 6.77145 17.1411 7.68261 17.5564 8.90196C17.6837 9.28384 18.0589 10.8784 17.5296 11.0258C17.0071 11.1665 17.0205 10.6975 16.9803 10.3223C16.8798 9.39104 16.5113 8.26548 15.7944 7.63571C14.7694 6.71785 13.4361 6.69775 12.9805 6.53696ZM13.3825 8.29898C13.2083 8.17839 13.2418 7.8769 13.3624 7.73621C13.6639 7.39452 14.8766 7.60221 15.6269 8.68087C15.9954 9.20344 16.4912 10.5903 15.4393 10.4429C15.0173 9.90021 15.3723 9.19004 14.4344 8.64737C14.1128 8.45978 13.5299 8.40618 13.3825 8.29898ZM12.1833 4.57395C12.0627 4.39305 12.1699 4.09157 12.3843 3.99107C12.6322 3.85708 13.818 4.03797 14.1061 4.10497C16.4443 4.62084 18.3537 6.35607 19.218 8.60047C19.3922 9.04935 20.0085 11.5081 19.4123 11.7225C18.7222 11.9704 18.8361 10.9521 18.7691 10.5099C18.6686 9.91361 18.5681 9.50493 18.4006 8.94885C17.5832 6.18188 15.5264 5.24392 12.9471 4.78164C12.7126 4.73474 12.324 4.78164 12.1833 4.57395Z" fill="#319F1C"/>
</svg>
