<svg width="25" height="25" viewBox="0 0 25 25" fill="none" xmlns="http://www.w3.org/2000/svg">
<path fill-rule="evenodd" clip-rule="evenodd" d="M12.4838 22.7924C10.6614 22.7924 8.86591 22.3033 7.29818 21.3855C7.13069 21.2917 6.93639 21.2381 6.7488 21.2381C6.64831 21.2381 6.55451 21.2515 6.46072 21.2783L3.04386 22.2162L4.23641 19.5966C4.39721 19.2349 4.35701 18.8262 4.12252 18.5046C2.85627 16.7426 2.1796 14.659 2.1796 12.4883C2.1796 6.8069 6.8024 2.1841 12.4838 2.1841C18.1651 2.1841 22.7879 6.8069 22.7879 12.4883C22.7879 18.1696 18.1651 22.7924 12.4838 22.7924ZM12.4838 0C5.60315 0 0.00219823 5.60095 0.00219823 12.4883C0.00219823 14.9068 0.685568 17.2316 1.99201 19.255L0.0959941 23.4289C-0.0781982 23.8175 -0.0112012 24.2663 0.263487 24.5879C0.471178 24.8358 0.779364 24.9698 1.08755 24.9698C1.18805 24.9698 1.28184 24.9564 1.38234 24.9296L6.60141 23.4959C8.41033 24.4606 10.4336 24.9698 12.4838 24.9698C19.371 24.9698 24.972 19.3689 24.972 12.4883C24.972 5.60095 19.371 0 12.4838 0Z" fill="#319F1C"/>
<path fill-rule="evenodd" clip-rule="evenodd" d="M17.2882 14.3575C16.7656 14.0426 16.0822 13.6942 15.4659 13.9488C14.9969 14.1364 14.6954 14.88 14.3872 15.2552C14.2264 15.4495 14.0388 15.483 13.7976 15.3825C12.0289 14.679 10.6689 13.4932 9.69071 11.8585C9.52322 11.6106 9.55002 11.4096 9.75101 11.1751C10.0458 10.8267 10.421 10.4314 10.5014 9.96246C10.5818 9.49348 10.3607 8.9441 10.1664 8.52202C9.9185 7.99274 9.63712 7.22898 9.10784 6.92749C8.61206 6.6528 7.96889 6.8069 7.52671 7.16198C6.76964 7.77835 6.40786 8.74311 6.42126 9.70117C6.42126 9.96916 6.45476 10.2371 6.51505 10.5051C6.66915 11.1349 6.96393 11.7245 7.29222 12.2806C7.54011 12.7026 7.8081 13.1113 8.09618 13.5066C9.04754 14.7996 10.2267 15.9185 11.5934 16.756C12.2768 17.1713 13.0138 17.5398 13.7708 17.7877C14.6284 18.0758 15.3855 18.3639 16.31 18.1897C17.2748 18.0088 18.2261 17.4125 18.6147 16.4813C18.7286 16.2066 18.7822 15.8984 18.7152 15.6036C18.5879 15.0073 17.7706 14.6456 17.2882 14.3575Z" fill="#319F1C"/>
</svg>
